<?xml version="1.0" encoding="UTF-8"?>
<svg id="Cap" xmlns="http://www.w3.org/2000/svg" version="1.1" viewBox="0 0 296.22 293.74">
  <!-- Generator: Adobe Illustrator 29.2.1, SVG Export Plug-In . SVG Version: 2.1.0 Build 116)  -->
  <defs>
    <style>
      .st0 {
        fill: #010101;
      }

      .st1 {
        stroke: #fff;
        stroke-width: 3px;
      }

      .st1, .st2 {
        fill: none;
        stroke-miterlimit: 10;
      }

      .st2 {
        stroke: #d1d3d4;
        stroke-dasharray: 12 12;
        stroke-width: 2px;
      }

      .st3, .st4 {
        fill: #fff;
      }

      .st4 {
        font-family: AbrilFatface-Regular, 'Abril Fatface';
        font-size: 74.01px;
        letter-spacing: .05em;
      }

      .st5 {
        opacity: .3;
      }
    </style>
  </defs>
  <path id="bgcircle" class="st0" d="M144.72,3.18c2.35-4.24,6.2-4.24,8.56,0,2.35,4.24,6.62,4.51,9.49.6,2.86-3.91,6.68-3.43,8.49,1.07,1.8,4.5,6,5.3,9.34,1.78,3.33-3.52,7.06-2.56,8.28,2.13,1.23,4.69,5.3,6.01,9.04,2.94,3.75-3.07,7.33-1.66,7.95,3.15.63,4.81,4.5,6.63,8.6,4.05,4.1-2.58,7.48-.73,7.5,4.12.02,4.85,3.63,7.14,8.03,5.09,4.39-2.04,7.51.22,6.92,5.03-.59,4.81,2.71,7.54,7.33,6.06,4.62-1.48,7.42,1.16,6.23,5.86-1.19,4.7,1.74,7.82,6.51,6.93,4.76-.89,7.22,2.08,5.45,6.59-1.77,4.51.75,7.98,5.59,7.69,4.84-.28,6.9,2.97,4.59,7.22-2.32,4.26-.26,8.01,4.58,8.33,4.83.32,6.48,3.81,3.64,7.74-2.83,3.93-1.26,7.91,3.5,8.84,4.76.93,5.95,4.59,2.65,8.14-3.3,3.55-2.24,7.69,2.37,9.21,4.6,1.52,5.32,5.3,1.6,8.4-3.72,3.11-3.19,7.35,1.19,9.43,4.38,2.08,4.62,5.92.54,8.54-4.08,2.61-4.08,6.89,0,9.51,4.08,2.61,3.84,6.46-.54,8.54-4.38,2.08-4.91,6.33-1.19,9.43,3.72,3.1,3,6.89-1.6,8.4-4.6,1.52-5.67,5.66-2.37,9.21,3.3,3.55,2.11,7.21-2.65,8.14-4.76.93-6.33,4.91-3.5,8.84,2.83,3.93,1.19,7.42-3.64,7.74-4.84.32-6.9,4.07-4.58,8.33,2.32,4.26.25,7.51-4.59,7.22-4.84-.29-7.35,3.18-5.59,7.69,1.77,4.51-.69,7.48-5.45,6.59-4.76-.89-7.69,2.23-6.51,6.93,1.19,4.7-1.62,7.33-6.23,5.86-4.62-1.48-7.91,1.25-7.33,6.06.59,4.81-2.53,7.07-6.92,5.03-4.39-2.04-8.01.25-8.03,5.09-.02,4.85-3.4,6.7-7.5,4.12-4.1-2.58-7.97-.76-8.6,4.05-.63,4.81-4.21,6.22-7.95,3.15-3.75-3.07-7.82-1.75-9.04,2.94-1.22,4.69-4.95,5.65-8.28,2.13-3.33-3.52-7.54-2.72-9.34,1.78-1.81,4.5-5.63,4.98-8.49,1.07-2.86-3.91-7.13-3.64-9.49.6-2.35,4.24-6.2,4.24-8.56,0-2.35-4.24-6.62-4.51-9.49-.6-2.87,3.91-6.69,3.43-8.49-1.07-1.8-4.5-6-5.3-9.34-1.78-3.33,3.52-7.06,2.56-8.29-2.13-1.23-4.69-5.29-6.01-9.04-2.94-3.75,3.07-7.33,1.66-7.95-3.15-.63-4.81-4.5-6.63-8.6-4.05-4.1,2.58-7.48.73-7.5-4.12-.02-4.85-3.63-7.14-8.03-5.09-4.39,2.04-7.51-.22-6.92-5.03.59-4.81-2.71-7.54-7.33-6.06-4.62,1.48-7.42-1.16-6.24-5.86,1.19-4.7-1.74-7.82-6.51-6.93-4.76.89-7.22-2.08-5.45-6.59,1.77-4.51-.75-7.97-5.59-7.69-4.84.28-6.9-2.97-4.58-7.22,2.32-4.26.26-8.01-4.58-8.33-4.84-.32-6.48-3.81-3.64-7.74,2.83-3.93,1.26-7.91-3.5-8.84-4.76-.93-5.95-4.59-2.64-8.14,3.3-3.55,2.24-7.69-2.37-9.21-4.6-1.52-5.32-5.3-1.6-8.4,3.72-3.11,3.19-7.35-1.19-9.43-4.38-2.08-4.62-5.92-.54-8.54,4.08-2.61,4.08-6.89,0-9.51-4.08-2.61-3.84-6.46.54-8.54,4.38-2.08,4.92-6.33,1.19-9.43-3.72-3.1-3-6.89,1.6-8.4,4.6-1.52,5.67-5.66,2.37-9.21-3.3-3.55-2.12-7.21,2.64-8.14,4.76-.93,6.33-4.91,3.5-8.84-2.83-3.93-1.19-7.42,3.64-7.74,4.83-.32,6.9-4.07,4.58-8.33-2.32-4.26-.25-7.51,4.58-7.22,4.84.29,7.35-3.18,5.59-7.69-1.76-4.51.69-7.48,5.45-6.59,4.77.89,7.69-2.23,6.51-6.93-1.19-4.7,1.62-7.33,6.24-5.86,4.62,1.48,7.91-1.25,7.33-6.06-.59-4.81,2.53-7.07,6.92-5.03,4.39,2.04,8.01-.25,8.03-5.09.02-4.85,3.39-6.7,7.5-4.12,4.1,2.58,7.97.76,8.6-4.05.63-4.81,4.21-6.22,7.95-3.15,3.75,3.07,7.82,1.75,9.04-2.94,1.22-4.69,4.95-5.65,8.29-2.13,3.33,3.52,7.54,2.72,9.34-1.78,1.8-4.5,5.62-4.98,8.49-1.07,2.86,3.91,7.13,3.64,9.49-.6Z"/>
  <g id="dot_line">
    <circle class="st2" cx="149" cy="146.87" r="133.7"/>
  </g>
  <g id="snowfrake" class="st5">
    <polygon class="st1" points="170.85 92.38 148.65 41.82 126.44 92.38 148.65 142.94 170.85 92.38"/>
    <polygon class="st1" points="117.04 95.01 91.31 84.98 101.34 110.71 127.06 120.74 117.04 95.01"/>
    <polygon class="st1" points="196.48 175.14 170.72 165.21 180.84 190.9 206.6 200.83 196.48 175.14"/>
    <polygon class="st1" points="180.78 95.1 170.85 120.87 196.54 110.75 206.47 84.98 180.78 95.1"/>
    <polygon class="st1" points="103.15 175.2 93.22 200.97 118.91 190.85 128.84 165.08 103.15 175.2"/>
    <polygon class="st1" points="170.85 193.5 148.65 142.94 126.44 193.5 148.65 244.07 170.85 193.5"/>
    <polygon class="st1" points="199.92 120.74 149.36 142.94 199.92 165.15 250.48 142.94 199.92 120.74"/>
    <polygon class="st1" points="98.08 120.74 47.52 142.94 98.08 165.15 148.65 142.94 98.08 120.74"/>
  </g>
  <g id="zima">
    <text class="st4" transform="translate(51.94 167.38)"><tspan x="0" y="0">ZIMA</tspan></text>
  </g>
  <g id="original">
    <path class="st3" d="M114.33,184.66c4.54,0,8.25,3.31,8.25,8.15,0,5.23-3.73,8.52-8.37,8.52-4.91,0-8.47-3.58-8.47-8.32,0-4.2,3-8.35,8.59-8.35ZM113.96,185.74c-2.5,0-4.35,2.46-4.35,6.8s1.65,7.71,4.96,7.71c2.33,0,4.15-2.26,4.15-6.75,0-4.86-1.92-7.76-4.76-7.76Z"/>
    <path class="st3" d="M131.05,200.97h-6.48v-.83c1.3-.15,1.42-.27,1.42-1.74v-5.38c0-1.23-.1-1.35-1.25-1.6v-.76c1.52-.17,2.9-.47,4.42-.93v2.65c1.1-1.69,1.99-2.6,3-2.6.91,0,1.6.61,1.6,1.47,0,1.2-.86,1.89-1.25,2.09-.34.15-.59.02-.76-.12-.42-.34-.74-.74-1.15-.74-.37,0-.98.32-1.42,1.25v4.66c0,1.47.17,1.55,1.89,1.74v.83Z"/>
    <path class="st3" d="M134.96,200.97v-.83c1.33-.17,1.47-.27,1.47-2.01v-4.79c0-1.65-.12-1.74-1.28-1.89v-.81c1.55-.17,3.09-.49,4.44-.88v8.37c0,1.67.1,1.84,1.52,2.01v.83h-6.16ZM137.83,188.25c-.93,0-1.77-.79-1.77-1.74,0-1.01.83-1.74,1.79-1.74s1.77.74,1.77,1.74-.79,1.74-1.79,1.74Z"/>
    <path class="st3" d="M145.93,197.14c-.25.27-.44.59-.44.83,0,.39.47.91,1.4.91h2.77c1.5,0,3.68.61,3.68,3.02,0,2.77-3.39,4.98-6.65,4.98s-4.67-1.57-4.67-2.92c0-.59.22-.98.74-1.35.66-.47,1.3-.88,1.84-1.23-.98-.37-1.5-.86-1.84-1.38-.29-.39-.44-1.01-.39-1.35,1.15-.49,2.19-1.23,2.65-1.79l.91.27ZM147.11,197.38c-2.8,0-4.62-1.5-4.62-3.71,0-2.65,2.55-3.9,4.76-3.9,1.03,0,1.87.2,2.77.64,1.03,0,2.77-.17,3.39-.34l.12.2c-.15.44-.47,1.25-.91,1.52-.42,0-1.1-.1-1.45-.12.37.44.59,1.08.59,2.01,0,2.46-2.26,3.71-4.67,3.71ZM147.41,201.46c-1.25,0-1.87.15-2.23.47-.42.34-.69.83-.69,1.35,0,1.3,1.23,2.31,3.34,2.31,1.89,0,3.07-.88,3.07-2.21,0-.91-.59-1.5-1.35-1.69-.66-.17-1.23-.22-2.14-.22ZM147.14,190.7c-.76,0-1.52.91-1.52,2.7,0,1.67.56,3.04,1.72,3.04.96,0,1.5-1.01,1.5-2.77,0-1.55-.52-2.97-1.69-2.97Z"/>
    <path class="st3" d="M154.33,200.97v-.83c1.33-.17,1.47-.27,1.47-2.01v-4.79c0-1.65-.12-1.74-1.28-1.89v-.81c1.55-.17,3.09-.49,4.44-.88v8.37c0,1.67.1,1.84,1.52,2.01v.83h-6.16ZM157.2,188.25c-.93,0-1.77-.79-1.77-1.74,0-1.01.83-1.74,1.79-1.74s1.77.74,1.77,1.74-.79,1.74-1.79,1.74Z"/>
    <path class="st3" d="M168.67,200.97v-.83c1.03-.15,1.1-.25,1.1-1.94v-4.2c0-1.74-.86-2.28-1.72-2.28-.64,0-1.18.25-1.84.74v5.94c0,1.5.1,1.6,1.1,1.74v.83h-5.7v-.83c1.28-.22,1.42-.25,1.42-1.84v-5.11c0-1.47-.2-1.55-1.28-1.77v-.79c1.42-.17,3.12-.49,4.49-.93-.02.34-.05,1.2-.05,1.77.49-.34,1.01-.71,1.57-1.06.74-.44,1.2-.64,1.92-.64,1.99,0,3.24,1.45,3.24,3.95v4.64c0,1.52.15,1.6,1.33,1.77v.83h-5.6Z"/>
    <path class="st3" d="M183.58,201.26c-.66,0-1.2-.22-1.52-.52-.34-.29-.52-.64-.64-.91-.93.61-2.14,1.42-2.6,1.42-2.11,0-3.34-1.64-3.34-3.17,0-1.3.59-1.89,1.89-2.41,1.45-.54,3.39-1.13,3.95-1.62v-1.08c0-1.28-.47-1.99-1.52-1.99-.42,0-.76.2-.98.49-.29.39-.39.88-.59,1.62-.17.66-.56.83-1.06.83-.64,0-1.45-.59-1.45-1.28,0-.44.29-.76.86-1.15,1.1-.74,2.55-1.45,3.93-1.74.98,0,1.82.22,2.53.71,1.06.74,1.35,1.77,1.35,3.02v4.25c0,1.18.39,1.47.79,1.47.25,0,.49-.07.76-.2l.27.83-2.63,1.4ZM181.32,195.07c-.44.25-.88.49-1.37.76-.76.39-1.2.83-1.2,1.67,0,1.38.96,1.87,1.5,1.87.34,0,.69-.02,1.08-.39v-3.9Z"/>
    <path class="st3" d="M186.77,200.97v-.83c1.4-.22,1.45-.34,1.45-1.89v-11.17c0-1.28-.15-1.42-1.42-1.69v-.79c1.69-.17,3.41-.47,4.59-.83v14.49c0,1.62.07,1.72,1.47,1.89v.83h-6.09Z"/>
  </g>
</svg>