<?xml version="1.0" encoding="UTF-8"?>
<svg id="Grapes" xmlns="http://www.w3.org/2000/svg" version="1.1" viewBox="0 0 199 231.34">
  <!-- Generator: Adobe Illustrator 29.2.1, SVG Export Plug-In . SVG Version: 2.1.0 Build 116)  -->
  <defs>
    <style>
      .st0 {
        fill: #64598e;
      }

      .st1 {
        fill: #776228;
      }

      .st2 {
        fill: #8665ab;
      }

      .st3 {
        fill: #7267ae;
      }

      .st4 {
        fill: #8877b7;
      }

      .st5 {
        fill: #8664ab;
      }


      #one_grape, #branch {
        transition: all 0.8s ease;
      }

      #Grapes:hover #one_grape {
        transform: translate(40px);
      }

      #Grapes:hover #branch {
        transform: translateY(-10px);
      }
    </style>
  </defs>
  <g id="branch">
    <polygon class="st1" points="118.85 2.12 123.85 6.75 146.45 16.47 178.46 24.74 192.26 27.5 193.38 25.63 166.96 17.48 146.7 11.72 129.41 4.57 123.85 2.12 122.26 0 118.85 2.12"/>
    <polygon class="st1" points="137.17 45.95 144.72 34.88 148.33 24.86 150.89 14.87 146.96 13.87 145.7 23.89 141.01 30.97 137.98 38.47 131.18 41.75 137.17 45.95"/>
  </g>
  <g id="grape">
    <circle class="st5" cx="28.73" cy="150.57" r="28.38"/>
    <circle class="st5" cx="37.95" cy="82.74" r="28.38"/>
    <circle class="st3" cx="50.73" cy="114.63" r="28.38"/>
    <circle class="st0" cx="91.52" cy="131.42" r="28.38"/>
    <circle class="st5" cx="111.19" cy="174.58" r="28.38"/>
    <circle class="st3" cx="66.33" cy="45.95" r="28.38"/>
    <circle class="st5" cx="107.49" cy="45.95" r="28.38"/>
    <circle class="st4" cx="82.81" cy="86.25" r="28.38"/>
    <circle class="st0" cx="150.89" cy="69.64" r="28.38"/>
    <circle class="st4" cx="142.42" cy="136.38" r="28.38"/>
    <circle class="st3" cx="45.96" cy="193.14" r="28.38"/>
    <circle class="st0" cx="74.34" cy="202.96" r="28.38"/>
    <circle class="st2" cx="122.51" cy="98.02" r="28.38"/>
    <circle class="st4" cx="66.33" cy="159.47" r="28.38"/>
  </g>
  <circle id="one_grape" class="st3" cx="170.8" cy="102.71" r="28.38"/>
</svg>