<?xml version="1.0" encoding="UTF-8"?>
<svg id="Playmark" xmlns="http://www.w3.org/2000/svg" version="1.1" viewBox="0 0 140.79 140.75">
  <!-- Generator: Adobe Illustrator 29.2.1, SVG Export Plug-In . SVG Version: 2.1.0 Build 116)  -->
  <defs>
    <style>
      .st0 {
        fill: #fafafc;
      }

      .st1 {
        fill: #9b9b9b;
      }

      .st2 {
        fill: #fff;
      }

      #play {
        opacity: 0;
        transform: rotate(0deg);
        transition: opacity 0.1s ease, transform 10s ease;
        transform-origin: center;
      }

      #Playmark:hover #play {
        opacity: 1;
        transform: rotate(180deg);
      }

      #Playmark:hover #stroke_circle {
        opacity: 0;
      }

      #Playmark:hover #triangle {
        transform: scale(0.8);
        transform-origin: center;
        transition: transform 0.7s ease;
      }
    </style>
  </defs>
  <g>
    <circle id="backcircle" class="st1" cx="72.38" cy="69.94" r="54.59"/>
    <path class="st2" d="M72.38,125.03c-30.38,0-55.09-24.71-55.09-55.09S42.01,14.85,72.38,14.85s55.09,24.71,55.09,55.09-24.71,55.09-55.09,55.09ZM72.38,15.85c-29.83,0-54.09,24.26-54.09,54.09s24.26,54.09,54.09,54.09,54.09-24.26,54.09-54.09S102.21,15.85,72.38,15.85Z"/>
  </g>
  <path id="stroke_circle" class="st1" d="M72.38,134.14c-35.4,0-64.2-28.8-64.2-64.2S36.98,5.74,72.38,5.74s64.2,28.8,64.2,64.2-28.8,64.2-64.2,64.2ZM72.38,8.74c-33.75,0-61.2,27.46-61.2,61.2s27.46,61.2,61.2,61.2,61.2-27.46,61.2-61.2S106.13,8.74,72.38,8.74Z"/>
  <g id="play">
    <path class="st1" d="M6.37,68.91l.05-1.07.6-.07v-.04c-.38-.49-.67-1.1-.64-1.72.07-1.39,1.23-2.13,2.95-2.05,1.9.1,2.95,1.29,2.89,2.53-.03.49-.27.97-.69,1.4h.93s1.75.1,1.75.1l-.07,1.31-7.77-.4ZM9.27,65.32c-1.11-.06-1.79.27-1.83,1.12-.02.4.16.79.56,1.25l2.59.13c.36-.38.5-.77.52-1.09.04-.74-.59-1.34-1.85-1.41Z"/>
    <path class="st1" d="M10.94,62.84l-6.53-.82.16-1.3,6.6.83c.32.04.45-.09.47-.22,0-.06.01-.1,0-.21l.99-.04c.04.17.07.39.03.7-.12.92-.75,1.18-1.72,1.06Z"/>
    <path class="st1" d="M11.21,60.1c-1.17-.23-1.59-1.33-1.38-3.62-.59-.1-1.13.04-1.28.78-.11.54.03,1.1.23,1.64l-.95.3c-.26-.68-.44-1.52-.27-2.39.27-1.37,1.25-1.87,2.77-1.56l3.23.65-.21,1.05-.62-.02v.04c.31.57.52,1.2.39,1.84-.19.96-.97,1.48-1.93,1.29ZM11.86,56.89l-1.23-.25c-.11,1.52.18,2.09.73,2.2.48.1.76-.19.85-.65.09-.44-.06-.83-.35-1.31Z"/>
    <path class="st1" d="M15.9,55.5l-.9-.52c.06-.09.15-.23.19-.36.17-.56-.12-1-.6-1.34l-.31-.2-5.91.52.38-1.27,2.9-.14c.52-.02,1.09-.01,1.65-.02v-.04c-.44-.28-.93-.58-1.38-.86l-2.38-1.58.36-1.21,5.01,3.6c1.07.8,1.65,1.59,1.3,2.75-.09.29-.19.49-.32.66Z"/>
    <path class="st1" d="M14.73,40.48c.58.28.82.98.54,1.56s-.98.82-1.56.54c-.58-.28-.82-.98-.54-1.56.29-.6,1-.81,1.56-.54Z"/>
    <path class="st1" d="M16.16,35.3l.59-.89.55.25.02-.03c-.08-.62-.02-1.29.32-1.8.77-1.16,2.15-1.21,3.58-.25,1.59,1.06,1.87,2.62,1.18,3.65-.27.41-.73.69-1.31.85l.79.48,1.46.98-.73,1.09-6.48-4.32ZM20.49,33.7c-.93-.62-1.68-.68-2.15.03-.22.34-.27.77-.15,1.36l2.16,1.44c.51-.14.83-.4,1.01-.67.41-.62.18-1.45-.87-2.16Z"/>
    <path class="st1" d="M23.2,32.44l-5.19-4.05.81-1.03,5.24,4.1c.25.2.43.15.52.05.04-.05.06-.08.11-.17l.87.47c-.05.16-.14.37-.34.61-.57.73-1.25.63-2.02.03Z"/>
    <path class="st1" d="M24.83,30.23c-.89-.8-.68-1.95.67-3.81-.46-.39-.99-.54-1.49.01-.37.41-.54.97-.64,1.53l-.97-.23c.12-.71.4-1.53.99-2.19.94-1.03,2.03-.97,3.18.07l2.45,2.21-.72.79-.53-.34-.02.03c-.02.66-.16,1.3-.6,1.79-.65.72-1.6.78-2.32.13ZM27.03,27.8l-.93-.84c-.87,1.25-.92,1.89-.5,2.27.37.33.75.23,1.06-.12.3-.34.37-.74.37-1.3Z"/>
    <path class="st1" d="M31.22,28.68l-.51-.91c.1-.05.25-.12.35-.21.43-.4.41-.92.17-1.46l-.16-.33-5.34-2.56.97-.9,2.56,1.36c.46.25.95.55,1.43.83l.03-.03c-.25-.48-.52-.98-.75-1.45l-1.24-2.57.93-.86,2.47,5.65c.51,1.24.61,2.21-.29,3.03-.22.21-.41.32-.61.41Z"/>
    <path class="st1" d="M37.87,15.18c.35.54.2,1.26-.34,1.62s-1.26.2-1.62-.34c-.35-.54-.2-1.26.34-1.62.56-.37,1.28-.19,1.62.34Z"/>
    <path class="st1" d="M44.24,10.19l.99-.42.33.51h.03c.27-.57.69-1.11,1.26-1.35,1.28-.55,2.46.16,3.13,1.75.75,1.75.14,3.22-1,3.71-.46.19-.99.18-1.56,0l.4.84.69,1.62-1.2.52-3.07-7.16ZM48.75,11.22c-.44-1.02-1.03-1.48-1.81-1.15-.37.16-.64.5-.87,1.06l1.02,2.39c.5.16.91.11,1.21-.01.68-.29.95-1.12.45-2.28Z"/>
    <path class="st1" d="M51.72,11.63l-2.12-6.23,1.24-.42,2.15,6.29c.1.31.28.37.41.32.06-.02.1-.03.19-.09l.47.87c-.13.11-.32.23-.62.33-.88.3-1.39-.16-1.71-1.08Z"/>
    <path class="st1" d="M54.32,10.66c-.3-1.15.5-2.01,2.64-2.83-.17-.57-.53-1-1.26-.8-.54.14-.98.51-1.37.93l-.69-.72c.49-.53,1.17-1.06,2.03-1.29,1.35-.35,2.23.3,2.62,1.8l.84,3.19-1.04.27-.25-.57h-.04c-.37.55-.84,1.01-1.48,1.18-.94.25-1.76-.22-2.01-1.16ZM57.49,9.83l-.32-1.21c-1.41.57-1.8,1.08-1.66,1.62.13.48.5.6.96.48.44-.12.72-.42,1.02-.89Z"/>
    <path class="st1" d="M60.49,12.87l.07-1.04c.11.01.28.03.41.01.58-.1.85-.55.94-1.13l.05-.36-3.07-5.07,1.31-.22,1.4,2.54c.25.46.49.98.74,1.47h.04c.05-.54.1-1.11.16-1.63l.37-2.83,1.25-.21-1.03,6.08c-.25,1.31-.7,2.18-1.9,2.38-.3.05-.52.04-.74,0Z"/>
    <path class="st1" d="M73.39,5.2c.01.65-.5,1.18-1.15,1.19-.65.01-1.18-.5-1.19-1.15-.01-.65.5-1.18,1.15-1.19.67-.01,1.18.53,1.19,1.15Z"/>
    <path class="st1" d="M81.52,4.54l1.06.18v.6s.03,0,.03,0c.53-.32,1.18-.54,1.78-.43,1.37.24,1.97,1.48,1.67,3.17-.33,1.88-1.64,2.77-2.86,2.56-.49-.09-.93-.39-1.31-.85l-.12.92-.3,1.73-1.29-.23,1.34-7.67ZM84.73,7.86c.19-1.1-.05-1.81-.89-1.95-.4-.07-.81.07-1.31.41l-.45,2.56c.33.4.7.59,1.02.65.73.13,1.41-.42,1.62-1.66Z"/>
    <path class="st1" d="M86.99,9.83l1.62-6.38,1.27.32-1.64,6.45c-.08.31.03.46.17.49.06.01.1.03.2.03l-.08.99c-.17.02-.39.02-.7-.06-.9-.23-1.08-.89-.84-1.83Z"/>
    <path class="st1" d="M89.67,10.43c.38-1.13,1.51-1.41,3.76-.92.17-.57.1-1.12-.61-1.36-.53-.17-1.1-.1-1.66.03l-.18-.98c.7-.17,1.56-.25,2.4.03,1.32.44,1.7,1.47,1.21,2.95l-1.04,3.13-1.02-.34.1-.62h-.03c-.61.24-1.25.37-1.88.16-.93-.31-1.35-1.15-1.05-2.07ZM92.78,11.47l.4-1.19c-1.5-.3-2.1-.08-2.28.45-.16.47.09.78.54.93.43.14.83.04,1.34-.19Z"/>
    <path class="st1" d="M93.67,15.67l.63-.83c.08.07.21.18.33.23.54.24,1.01,0,1.4-.43l.24-.28.21-5.92,1.21.53-.22,2.89c-.05.52-.12,1.09-.18,1.64l.04.02c.34-.42.69-.86,1.02-1.27l1.86-2.17,1.16.51-4.19,4.53c-.93.96-1.78,1.44-2.89.95-.28-.12-.46-.25-.62-.4Z"/>
    <path class="st1" d="M108.7,16.35c-.35.54-1.08.69-1.62.34s-.69-1.08-.34-1.62c.35-.54,1.08-.69,1.62-.34.56.37.68,1.1.34,1.62Z"/>
    <path class="st1" d="M115.8,20.2l.78.73-.33.5.03.02c.62.03,1.28.2,1.72.62,1.02.95.83,2.31-.34,3.57-1.3,1.39-2.89,1.41-3.79.57-.36-.34-.56-.83-.63-1.43l-.6.7-1.2,1.28-.95-.89,5.32-5.67ZM116.67,24.74c.76-.81.95-1.54.33-2.12-.29-.28-.71-.39-1.32-.38l-1.78,1.89c.06.52.26.88.5,1.1.54.51,1.4.42,2.27-.5Z"/>
    <path class="st1" d="M117.48,27.61l4.85-4.45.88.96-4.9,4.5c-.24.22-.22.4-.13.5.04.04.07.08.15.14l-.61.78c-.15-.07-.34-.2-.55-.43-.63-.68-.42-1.34.3-2Z"/>
    <path class="st1" d="M119.39,29.59c.93-.74,2.04-.36,3.65,1.28.46-.39.7-.89.23-1.48-.34-.43-.87-.69-1.41-.88l.38-.92c.68.24,1.45.64,2,1.33.87,1.09.62,2.16-.59,3.13l-2.58,2.05-.67-.84.42-.46-.02-.03c-.64-.13-1.26-.37-1.67-.88-.61-.76-.51-1.7.25-2.31ZM121.43,32.15l.98-.78c-1.09-1.06-1.71-1.21-2.15-.86-.38.31-.34.7-.05,1.07.28.35.67.49,1.23.57Z"/>
    <path class="st1" d="M119.88,36.16l.98-.35c.03.11.08.27.15.38.32.49.84.56,1.41.41l.35-.1,3.41-4.85.73,1.11-1.76,2.3c-.32.41-.7.85-1.05,1.27l.03.04c.51-.17,1.05-.35,1.55-.5l2.74-.8.69,1.06-5.99,1.5c-1.3.3-2.28.23-2.94-.78-.17-.25-.25-.46-.3-.67Z"/>
    <path class="st1" d="M132.11,44.94c-.59.26-1.28,0-1.54-.6s0-1.28.6-1.54c.59-.26,1.28,0,1.54.6.27.61-.03,1.29-.6,1.54Z"/>
    <path class="st1" d="M135.96,52.04l.25,1.04-.55.24v.04c.51.36.97.87,1.11,1.46.33,1.35-.57,2.39-2.24,2.8-1.85.45-3.19-.4-3.49-1.6-.12-.48-.01-1.01.26-1.54l-.89.26-1.71.41-.31-1.27,7.56-1.83ZM134.2,56.32c1.08-.26,1.64-.77,1.44-1.6-.09-.39-.38-.72-.89-1.04l-2.52.61c-.24.47-.26.88-.19,1.19.18.72.94,1.12,2.17.82Z"/>
    <path class="st1" d="M133.3,59.18l6.5-1.06.21,1.29-6.56,1.07c-.32.05-.41.21-.38.35,0,.06.02.1.06.2l-.94.32c-.09-.15-.17-.35-.22-.66-.15-.91.39-1.35,1.35-1.5Z"/>
    <path class="st1" d="M133.82,61.88c1.19-.11,1.9.82,2.35,3.08.6-.07,1.07-.36,1-1.11-.05-.55-.35-1.05-.69-1.51l.83-.56c.44.58.85,1.33.93,2.21.13,1.39-.67,2.15-2.21,2.29l-3.29.3-.1-1.07.61-.16v-.04c-.47-.46-.85-1-.91-1.66-.09-.97.51-1.7,1.48-1.79ZM134.11,65.15l1.25-.11c-.33-1.49-.76-1.96-1.33-1.9-.49.04-.68.4-.63.86.04.45.29.78.71,1.15Z"/>
    <path class="st1" d="M130.66,67.58l1.01.26c-.03.11-.08.27-.08.4,0,.59.38.93.94,1.13l.35.11,5.54-2.1-.02,1.33-2.75.92c-.5.16-1.05.31-1.58.46v.05c.51.15,1.06.3,1.57.45l2.72.88-.02,1.26-5.8-2.11c-1.25-.48-2.02-1.08-2-2.3,0-.3.05-.52.12-.73Z"/>
    <path class="st1" d="M136.05,81.67c-.64-.11-1.07-.71-.96-1.34.1-.64.71-1.07,1.34-.96.64.1,1.07.71.96,1.34-.11.66-.73,1.06-1.34.96Z"/>
    <path class="st1" d="M135.39,89.73l-.36,1.01-.59-.1v.04c.21.58.32,1.25.12,1.83-.46,1.31-1.78,1.69-3.41,1.12-1.8-.64-2.46-2.08-2.04-3.25.17-.47.54-.85,1.06-1.15l-.89-.27-1.66-.59.44-1.23,7.33,2.59ZM131.59,92.34c1.05.37,1.79.25,2.07-.55.13-.38.07-.81-.18-1.36l-2.45-.87c-.45.26-.7.59-.81.9-.25.7.18,1.45,1.37,1.88Z"/>
    <path class="st1" d="M129.27,94.25l6.02,2.66-.53,1.2-6.08-2.68c-.29-.13-.46-.04-.51.08-.02.05-.04.09-.06.2l-.96-.24c0-.17.05-.39.17-.68.37-.85,1.06-.92,1.95-.52Z"/>
    <path class="st1" d="M128.23,96.8c1.05.56,1.14,1.73.28,3.86.54.27,1.09.29,1.45-.38.26-.49.28-1.07.25-1.64l1-.02c.05.72-.01,1.58-.43,2.36-.65,1.23-1.73,1.43-3.1.71l-2.92-1.55.5-.95.59.2.02-.03c-.14-.64-.16-1.3.15-1.88.46-.86,1.36-1.15,2.22-.69ZM126.69,99.69l1.11.59c.54-1.42.43-2.06-.07-2.32-.44-.23-.78-.04-1,.38-.21.4-.18.81-.04,1.35Z"/>
    <path class="st1" d="M122.41,99.87l.71.76c-.08.07-.21.18-.28.29-.32.49-.17.99.19,1.46l.24.28,5.81,1.19-.73,1.11-2.81-.69c-.51-.13-1.05-.3-1.59-.45l-.03.04c.36.4.74.82,1.08,1.22l1.83,2.19-.69,1.06-3.77-4.88c-.8-1.08-1.13-1.99-.46-3.01.17-.25.33-.41.49-.54Z"/>
    <path class="st1" d="M119.26,114.59c-.48-.44-.51-1.18-.07-1.65s1.18-.51,1.65-.07.51,1.17.07,1.65c-.45.49-1.19.49-1.65.07Z"/>
    <path class="st1" d="M114.3,120.96l-.85.65-.44-.41-.03.02c-.13.61-.4,1.23-.89,1.6-1.11.85-2.42.45-3.47-.92-1.16-1.51-.92-3.08.06-3.84.39-.3.91-.42,1.51-.38l-.59-.71-1.07-1.4,1.04-.79,4.73,6.18ZM109.69,121.07c.68.88,1.36,1.19,2.04.67.32-.25.5-.64.59-1.24l-1.58-2.06c-.52-.03-.91.11-1.17.31-.59.45-.65,1.32.12,2.32Z"/>
    <path class="st1" d="M106.7,121.4l3.59,5.51-1.1.71-3.63-5.57c-.18-.27-.36-.29-.47-.21-.05.03-.09.06-.16.13l-.67-.73c.1-.14.25-.3.52-.47.78-.51,1.39-.19,1.92.62Z"/>
    <path class="st1" d="M104.42,122.98c.58,1.04.01,2.07-1.87,3.39.31.52.76.84,1.42.47.49-.27.82-.74,1.11-1.24l.84.53c-.35.63-.87,1.32-1.65,1.75-1.22.67-2.24.25-2.99-1.1l-1.6-2.89.94-.52.39.49.03-.02c.23-.62.57-1.18,1.15-1.5.85-.47,1.76-.22,2.23.63ZM101.55,124.56l.61,1.1c1.23-.9,1.48-1.49,1.21-1.98-.24-.43-.64-.46-1.05-.23-.4.22-.59.58-.77,1.12Z"/>
    <path class="st1" d="M97.88,122.36l.19,1.02c-.11.01-.28.04-.4.09-.54.24-.69.74-.63,1.32l.04.36,4.22,4.16-1.21.53-1.98-2.12c-.35-.38-.72-.82-1.08-1.25l-.04.02c.08.53.17,1.09.24,1.61l.34,2.84-1.16.51-.5-6.15c-.08-1.34.14-2.28,1.26-2.77.28-.12.5-.17.71-.19Z"/>
    <path class="st1" d="M87.18,132.98c-.16-.63.22-1.26.85-1.42s1.26.22,1.42.85-.22,1.26-.85,1.42c-.65.17-1.27-.24-1.42-.85Z"/>
    <path class="st1" d="M79.55,135.58l-1.07.08-.14-.59h-.04c-.44.44-1.01.81-1.62.85-1.39.1-2.27-.96-2.39-2.67-.14-1.9.92-3.08,2.16-3.17.49-.04.99.15,1.47.51l-.11-.92-.12-1.75,1.3-.09.55,7.76ZM75.63,133.14c.08,1.11.49,1.74,1.34,1.68.4-.03.77-.26,1.17-.71l-.19-2.59c-.42-.31-.83-.41-1.15-.38-.74.05-1.26.75-1.17,2Z"/>
    <path class="st1" d="M72.92,131.8l-.11,6.58-1.31-.02.11-6.65c0-.32-.14-.44-.27-.44-.06,0-.1,0-.2.02l-.15-.98c.16-.06.38-.11.69-.1.93.01,1.26.62,1.24,1.59Z"/>
    <path class="st1" d="M70.21,131.86c-.09,1.19-1.12,1.74-3.42,1.82-.03.6.18,1.11.93,1.17.55.04,1.09-.17,1.6-.43l.42.91c-.64.34-1.45.63-2.34.56-1.39-.1-2.01-1.01-1.9-2.56l.24-3.29,1.07.08.05.62h.04c.53-.39,1.12-.67,1.78-.62.97.07,1.6.78,1.53,1.75ZM66.94,131.61l-.09,1.25c1.52-.08,2.05-.44,2.09-1,.04-.49-.28-.73-.75-.76-.45-.03-.81.16-1.25.51Z"/>
    <path class="st1" d="M65.05,127.76l-.4.96c-.1-.05-.25-.12-.38-.14-.58-.1-.98.24-1.25.76l-.16.33,1.26,5.79-1.31-.22-.5-2.85c-.08-.52-.15-1.08-.23-1.64h-.04c-.22.48-.45,1-.68,1.48l-1.27,2.56-1.25-.21,2.95-5.42c.66-1.16,1.37-1.83,2.57-1.63.3.05.51.13.7.23Z"/>
    <path class="st1" d="M50.31,130.81c.21-.61.87-.94,1.49-.73.61.21.94.87.73,1.49s-.87.94-1.49.73c-.63-.22-.93-.89-.73-1.49Z"/>
    <path class="st1" d="M42.48,128.82l-.94-.52.2-.57-.03-.02c-.61.13-1.29.12-1.82-.18-1.22-.68-1.37-2.04-.54-3.54.93-1.67,2.46-2.08,3.54-1.48.43.24.75.67.96,1.23l.41-.83.85-1.54,1.14.63-3.78,6.8ZM40.53,124.63c-.54.97-.54,1.72.2,2.13.35.2.79.2,1.37.04l1.26-2.27c-.18-.49-.47-.79-.75-.95-.65-.36-1.46-.07-2.08,1.04Z"/>
    <path class="st1" d="M39.02,122.02l-3.62,5.5-1.09-.72,3.66-5.55c.18-.27.12-.44,0-.52-.05-.03-.09-.06-.18-.09l.4-.91c.17.03.38.11.64.29.77.51.73,1.2.19,2.01Z"/>
    <path class="st1" d="M36.69,120.58c-.73.95-1.89.84-3.86-.35-.35.49-.46,1.03.14,1.49.44.34,1.01.46,1.58.51l-.15.99c-.72-.07-1.56-.27-2.26-.81-1.11-.85-1.13-1.95-.19-3.18l2.01-2.62.85.65-.3.55.03.02c.66-.04,1.31.05,1.83.45.78.59.91,1.53.32,2.3ZM34.09,118.59l-.76,1c1.32.77,1.96.76,2.3.31.3-.39.16-.77-.21-1.05-.36-.28-.77-.31-1.33-.26Z"/>
    <path class="st1" d="M34.62,114.33l-.86.58c-.06-.1-.14-.24-.24-.33-.43-.4-.95-.33-1.47-.05l-.31.19-2.12,5.54-.97-.9,1.14-2.66c.21-.48.47-.99.71-1.49l-.03-.03c-.45.29-.93.59-1.38.87l-2.46,1.45-.93-.86,5.43-2.92c1.19-.61,2.15-.79,3.04.04.22.21.35.39.46.58Z"/>
    <path class="st1" d="M20.61,108.81c.51-.4,1.24-.31,1.64.2s.31,1.24-.2,1.64-1.24.31-1.64-.2c-.41-.53-.29-1.26.2-1.64Z"/>
    <path class="st1" d="M15.15,102.87l-.5-.95.48-.37-.02-.03c-.58-.23-1.15-.6-1.43-1.14-.65-1.23-.04-2.46,1.48-3.26,1.68-.89,3.19-.4,3.77.69.23.44.26.97.13,1.55l.8-.47,1.55-.82.61,1.16-6.87,3.64ZM15.8,98.3c-.98.52-1.39,1.15-1,1.9.19.36.55.6,1.12.78l2.29-1.21c.11-.51.04-.92-.11-1.2-.35-.66-1.19-.85-2.31-.26Z"/>
    <path class="st1" d="M15.96,95.31l-6.04,2.64-.52-1.2,6.1-2.67c.3-.13.34-.31.29-.43-.02-.05-.04-.1-.1-.18l.83-.54c.12.12.26.3.38.59.37.85-.04,1.4-.93,1.79Z"/>
    <path class="st1" d="M14.78,92.79c-1.12.4-2.04-.33-3.03-2.41-.56.22-.95.61-.7,1.32.18.52.59.93,1.04,1.29l-.66.74c-.57-.45-1.15-1.08-1.45-1.91-.46-1.31.12-2.24,1.58-2.76l3.11-1.1.36,1.01-.55.3v.03c.58.33,1.08.76,1.3,1.38.32.92-.08,1.77-.99,2.1ZM13.7,89.7l-1.18.42c.68,1.36,1.22,1.71,1.75,1.52.46-.16.56-.55.4-.99-.15-.43-.47-.68-.97-.94Z"/>
    <path class="st1" d="M16.48,86.46h-1.04c0-.1,0-.26-.02-.39-.14-.57-.61-.8-1.2-.84l-.36-.02-4.8,3.47-.32-1.29,2.42-1.6c.44-.28.93-.57,1.41-.86v-.04c-.55-.01-1.11-.01-1.64-.03l-2.85-.14-.31-1.22,6.14.54c1.33.14,2.23.52,2.52,1.7.07.29.08.52.07.73Z"/>
    <path class="st1" d="M7.79,74.16c.64-.05,1.21.42,1.26,1.07.05.64-.42,1.21-1.07,1.26-.64.05-1.21-.42-1.26-1.07-.05-.67.45-1.21,1.07-1.26Z"/>
  </g>
  <polygon id="triangle" class="st0" points="109.62 69.73 51.14 35.97 51.14 103.5 109.62 69.73"/>
</svg>