<?xml version="1.0" encoding="UTF-8"?>
<svg id="Playmark" xmlns="http://www.w3.org/2000/svg" version="1.1" viewBox="0 0 140.79 140.75">
  <!-- Generator: Adobe Illustrator 29.2.1, SVG Export Plug-In . SVG Version: 2.1.0 Build 116)  -->
  <defs>
    <style>
      .st0 {
        fill: #fafafc;
      }

      .st1 {
        fill: #9b9b9b;
      }

      .st2 {
        fill: #fff;
      }

      #play {
        opacity: 0;
        transform: rotate(0deg);
        transition: opacity 0.1s ease, transform 10s ease;
        transform-origin: center;
      }

      #Playmark:hover #play {
        opacity: 1;
        transform: rotate(180deg);
      }

      #Playmark:hover #stroke_circle {
        opacity: 0;
      }

      #Playmark:hover #triangle {
        transform: scale(0.8);
        transform-origin: center;
        transition: transform 0.7s ease;
      }
    </style>
  </defs>
  <g>
    <circle id="backcircle" class="st1" cx="72.38" cy="69.94" r="54.59"/>
    <path class="st2" d="M72.38,125.03c-30.38,0-55.09-24.71-55.09-55.09S42.01,14.85,72.38,14.85s55.09,24.71,55.09,55.09-24.71,55.09-55.09,55.09ZM72.38,15.85c-29.83,0-54.09,24.26-54.09,54.09s24.26,54.09,54.09,54.09,54.09-24.26,54.09-54.09S102.21,15.85,72.38,15.85Z"/>
  </g>
  <path id="stroke_circle" class="st1" d="M72.38,134.14c-35.4,0-64.2-28.8-64.2-64.2S36.98,5.74,72.38,5.74s64.2,28.8,64.2,64.2-28.8,64.2-64.2,64.2ZM72.38,8.74c-33.75,0-61.2,27.46-61.2,61.2s27.46,61.2,61.2,61.2,61.2-27.46,61.2-61.2S106.13,8.74,72.38,8.74Z"/>
  <g id="play">
    <path class="st1" d="M7.54,69.13l.03-.85.47-.06v-.03c-.3-.39-.54-.87-.52-1.35.04-1.1.96-1.7,2.32-1.65,1.51.06,2.35,1,2.31,1.98-.02.39-.21.77-.53,1.12h.73s1.39.05,1.39.05l-.04,1.04-6.16-.25ZM9.81,66.26c-.88-.04-1.41.23-1.44.9-.01.32.14.63.46.98l2.06.08c.28-.31.39-.61.4-.87.02-.59-.48-1.06-1.48-1.1Z"/>
    <path class="st1" d="M11.09,64.26l-5.19-.52.1-1.03,5.25.53c.25.03.36-.08.37-.19,0-.05,0-.08,0-.16l.78-.05c.04.13.06.31.03.55-.07.73-.57.95-1.34.88Z"/>
    <path class="st1" d="M11.25,62.08c-.94-.15-1.3-1-1.21-2.83-.47-.06-.89.07-.99.66-.07.43.06.87.23,1.3l-.74.27c-.23-.53-.4-1.19-.29-1.88.17-1.09.93-1.52,2.15-1.33l2.59.41-.13.84h-.5s0,.03,0,.03c.27.44.46.93.37,1.45-.12.77-.73,1.21-1.49,1.09ZM11.67,59.51l-.98-.16c-.04,1.21.21,1.65.65,1.72.39.06.6-.17.66-.54.06-.36-.07-.65-.32-1.03Z"/>
    <path class="st1" d="M14.84,58.22l-.74-.37c.04-.08.11-.19.13-.29.11-.45-.14-.79-.54-1.03l-.25-.14-4.65.69.24-1.02,2.28-.25c.41-.04.86-.06,1.3-.09v-.04c-.37-.2-.76-.41-1.13-.62l-1.96-1.14.23-.97,4.13,2.61c.88.58,1.38,1.18,1.16,2.12-.06.23-.13.4-.22.54Z"/>
    <path class="st1" d="M13.04,46.4c.48.18.72.72.54,1.2-.18.48-.72.72-1.2.54-.48-.18-.72-.72-.54-1.2.19-.5.73-.71,1.2-.54Z"/>
    <path class="st1" d="M14.69,40.29l.41-.74.45.16v-.02c-.09-.48-.08-1.02.15-1.45.53-.97,1.61-1.09,2.81-.43,1.32.73,1.65,1.94,1.18,2.8-.19.34-.53.59-.97.76l.66.33,1.22.67-.5.91-5.4-2.98ZM18,38.74c-.77-.43-1.37-.43-1.69.16-.15.28-.16.62-.03,1.08l1.8,1c.39-.15.63-.37.75-.6.29-.52.05-1.16-.83-1.64Z"/>
    <path class="st1" d="M20.04,37.55l-4.41-2.79.55-.88,4.45,2.82c.22.14.35.09.41,0,.02-.04.04-.07.07-.15l.72.3c-.02.13-.08.3-.22.51-.39.62-.94.59-1.59.18Z"/>
    <path class="st1" d="M21.15,35.68c-.77-.55-.72-1.48.18-3.07-.4-.26-.83-.34-1.18.15-.26.36-.33.81-.37,1.26l-.78-.09c.03-.57.18-1.24.58-1.81.64-.9,1.51-.95,2.51-.23l2.13,1.52-.49.69-.44-.22-.02.02c.04.52,0,1.04-.31,1.46-.45.63-1.19.76-1.81.31ZM22.67,33.56l-.81-.58c-.57,1.06-.55,1.57-.19,1.83.32.23.61.11.83-.19.21-.29.23-.62.17-1.06Z"/>
    <path class="st1" d="M26.08,33.83l-.49-.66c.07-.05.18-.12.25-.2.3-.36.23-.77-.02-1.16l-.16-.24-4.47-1.46.67-.81,2.15.8c.39.15.8.33,1.21.5l.02-.03c-.24-.35-.51-.71-.74-1.06l-1.24-1.89.64-.77,2.53,4.18c.53.92.71,1.67.09,2.41-.15.19-.29.29-.44.38Z"/>
    <path class="st1" d="M29.74,22.44c.35.38.32.96-.05,1.31-.38.35-.96.32-1.31-.05-.35-.38-.32-.96.05-1.31.39-.36.97-.31,1.31.05Z"/>
    <path class="st1" d="M34.18,17.52l.7-.48.33.34.02-.02c.13-.48.37-.96.77-1.23.91-.63,1.93-.25,2.71.87.86,1.25.61,2.48-.2,3.03-.32.22-.74.29-1.21.24l.44.59.79,1.15-.85.59-3.49-5.08ZM37.84,17.62c-.5-.73-1.03-.99-1.59-.61-.26.18-.42.49-.51.96l1.17,1.7c.41.04.73-.05.94-.2.49-.33.56-1.02,0-1.84Z"/>
    <path class="st1" d="M40.23,17.45l-2.69-4.47.89-.53,2.72,4.52c.13.22.28.24.37.18.04-.02.07-.04.13-.1l.51.6c-.08.11-.21.23-.42.36-.63.38-1.1.11-1.5-.55Z"/>
    <path class="st1" d="M42.06,16.28c-.44-.84.02-1.64,1.54-2.66-.23-.41-.59-.68-1.12-.4-.39.2-.66.57-.9.96l-.66-.43c.29-.5.71-1.03,1.34-1.36.98-.52,1.78-.17,2.35.92l1.22,2.32-.75.4-.3-.4h-.03c-.19.5-.47.94-.94,1.18-.69.36-1.4.14-1.76-.54ZM44.36,15.07l-.46-.88c-.99.69-1.2,1.16-.99,1.55.18.35.5.37.83.2.32-.17.48-.45.63-.87Z"/>
    <path class="st1" d="M47.29,16.85l-.14-.81c.09-.01.22-.03.31-.07.43-.18.55-.58.51-1.05l-.03-.29-3.33-3.31.96-.42,1.56,1.68c.28.31.57.66.85.99h.03c-.06-.44-.13-.88-.19-1.29l-.26-2.25.92-.4.38,4.88c.06,1.06-.12,1.81-1,2.2-.22.1-.39.13-.56.15Z"/>
    <path class="st1" d="M55.69,8.31c.14.49-.14,1-.64,1.15-.49.14-1-.14-1.15-.64-.14-.49.14-1,.64-1.15.51-.15,1.01.16,1.15.64Z"/>
    <path class="st1" d="M61.56,5.98l.84-.12.14.46h.03c.32-.37.76-.69,1.24-.76,1.09-.15,1.84.64,2.03,1.99.21,1.5-.57,2.49-1.54,2.62-.39.05-.79-.07-1.19-.32l.13.72.19,1.38-1.03.14-.85-6.11ZM64.79,7.71c-.12-.87-.48-1.35-1.14-1.26-.32.04-.59.25-.89.62l.28,2.04c.35.22.67.28.93.24.58-.08.96-.66.82-1.65Z"/>
    <path class="st1" d="M66.99,8.62l-.41-5.2,1.03-.08.41,5.26c.02.25.14.34.25.33.05,0,.08,0,.16-.03l.19.76c-.12.06-.29.11-.54.13-.73.06-1.04-.4-1.1-1.16Z"/>
    <path class="st1" d="M69.17,8.4c-.02-.95.76-1.46,2.57-1.69-.02-.48-.22-.87-.82-.85-.44,0-.85.22-1.23.46l-.4-.68c.48-.32,1.1-.6,1.8-.62,1.11-.02,1.66.65,1.69,1.88l.05,2.62-.85.02-.09-.49h-.03c-.39.35-.84.62-1.36.63-.77.02-1.32-.5-1.33-1.27ZM71.77,8.35l-.02-.99c-1.2.18-1.59.5-1.58.94,0,.39.28.56.65.55.36,0,.63-.19.95-.5Z"/>
    <path class="st1" d="M73.6,11.24l.23-.79c.08.03.21.07.31.08.46.02.75-.28.92-.71l.1-.27-1.51-4.45,1.05.05.65,2.2c.11.4.22.84.33,1.27h.04c.13-.4.27-.83.4-1.23l.77-2.13,1,.05-1.83,4.53c-.42.98-.91,1.57-1.88,1.52-.24-.01-.41-.06-.57-.12Z"/>
    <path class="st1" d="M84.88,7.33c-.09.5-.57.84-1.08.75-.5-.09-.84-.57-.75-1.08.09-.5.57-.84,1.08-.75.52.1.83.59.75,1.08Z"/>
    <path class="st1" d="M91.2,7.86l.8.27-.07.47h.03c.45-.18.99-.27,1.45-.12,1.05.35,1.37,1.39.93,2.68-.48,1.43-1.61,1.98-2.54,1.66-.37-.12-.68-.41-.92-.82l-.2.71-.44,1.32-.98-.33,1.96-5.85ZM93.33,10.84c.28-.84.17-1.42-.47-1.64-.3-.1-.64-.04-1.07.17l-.65,1.95c.21.36.48.55.72.63.56.19,1.15-.16,1.47-1.11Z"/>
    <path class="st1" d="M94.87,12.63l1.96-4.84.96.39-1.98,4.89c-.1.24-.02.36.08.4.04.02.08.03.16.04l-.17.77c-.14,0-.31-.03-.54-.12-.68-.27-.75-.82-.46-1.53Z"/>
    <path class="st1" d="M96.93,13.4c.4-.86,1.32-.97,3.05-.37.19-.44.19-.87-.35-1.13-.4-.19-.86-.19-1.31-.14l-.05-.79c.57-.07,1.25-.05,1.89.25,1,.47,1.2,1.32.67,2.43l-1.12,2.37-.77-.36.14-.48h-.03c-.5.12-1.02.17-1.49-.06-.7-.33-.96-1.03-.63-1.73ZM99.28,14.51l.42-.9c-1.15-.38-1.64-.26-1.83.14-.17.35,0,.62.34.78.33.15.65.11,1.07-.02Z"/>
    <path class="st1" d="M99.63,17.92l.56-.6c.06.06.15.16.25.21.4.23.79.09,1.14-.23l.21-.2.64-4.66.91.52-.41,2.26c-.08.41-.18.85-.28,1.28l.03.02c.3-.3.61-.63.91-.92l1.64-1.56.87.49-3.67,3.23c-.81.69-1.52.99-2.36.52-.21-.12-.34-.24-.46-.36Z"/>
    <path class="st1" d="M111.49,19.48c-.31.41-.89.49-1.3.18-.41-.31-.49-.89-.18-1.3.31-.41.89-.49,1.3-.18.42.32.48.9.18,1.3Z"/>
    <path class="st1" d="M116.9,22.77l.6.6-.28.39.02.02c.49.04,1.01.19,1.35.53.78.78.6,1.86-.36,2.82-1.07,1.07-2.33,1.05-3.02.35-.28-.28-.42-.67-.46-1.15l-.5.54-.99.98-.73-.73,4.36-4.36ZM117.47,26.39c.62-.62.79-1.2.31-1.67-.23-.23-.55-.33-1.03-.33l-1.46,1.46c.03.42.19.71.37.89.42.42,1.1.37,1.81-.34Z"/>
    <path class="st1" d="M118.05,28.67l3.9-3.47.69.78-3.94,3.5c-.19.17-.18.32-.11.4.03.03.05.06.12.11l-.49.61c-.12-.06-.27-.16-.43-.35-.49-.55-.31-1.07.26-1.58Z"/>
    <path class="st1" d="M119.55,30.27c.74-.59,1.62-.28,2.9,1.03.36-.31.56-.7.19-1.17-.27-.34-.68-.55-1.11-.7l.31-.73c.54.19,1.15.51,1.58,1.06.69.87.49,1.72-.48,2.48l-2.05,1.62-.53-.67.33-.37-.02-.02c-.51-.1-1-.3-1.32-.71-.48-.61-.4-1.35.21-1.83ZM121.16,32.32l.78-.62c-.86-.85-1.36-.97-1.71-.69-.31.24-.28.56-.04.85.22.28.53.39.97.46Z"/>
    <path class="st1" d="M119.96,35.52l.77-.29c.03.08.07.21.13.3.26.38.67.43,1.12.3l.28-.09,2.64-3.89.59.87-1.37,1.85c-.25.33-.54.68-.82,1.02l.02.03c.4-.14.83-.29,1.22-.42l2.16-.67.56.83-4.72,1.27c-1.03.25-1.8.22-2.34-.58-.14-.2-.2-.36-.25-.53Z"/>
    <path class="st1" d="M129.89,42.18c-.46.23-1.01.05-1.25-.41-.23-.46-.05-1.01.41-1.24s1.01-.05,1.25.41c.24.47.03,1.02-.41,1.24Z"/>
    <path class="st1" d="M134.09,49.91l.24.81-.43.21v.03c.42.27.8.65.94,1.12.31,1.06-.36,1.92-1.67,2.3-1.45.43-2.54-.2-2.82-1.14-.11-.38-.05-.8.15-1.23l-.7.24-1.34.39-.29-1,5.92-1.74ZM132.86,53.36c.85-.25,1.27-.67,1.08-1.32-.09-.31-.33-.55-.75-.79l-1.98.58c-.17.38-.17.71-.1.95.17.57.79.85,1.75.57Z"/>
    <path class="st1" d="M132.27,55.66l5.09-1.16.23,1.01-5.14,1.17c-.25.06-.31.19-.29.29.01.05.02.08.05.15l-.73.3c-.08-.11-.15-.27-.21-.51-.16-.72.24-1.08.99-1.26Z"/>
    <path class="st1" d="M132.81,57.78c.93-.16,1.55.54,2.04,2.29.47-.09.83-.35.73-.94-.07-.43-.34-.81-.64-1.15l.62-.49c.38.43.76,1,.87,1.69.18,1.09-.4,1.74-1.61,1.94l-2.58.44-.14-.84.47-.16v-.03c-.4-.33-.74-.74-.82-1.25-.13-.76.3-1.38,1.06-1.5ZM133.24,60.35l.98-.17c-.35-1.16-.72-1.5-1.17-1.43-.38.06-.51.36-.45.72.06.36.28.6.63.87Z"/>
    <path class="st1" d="M130.64,62.58l.82.12c-.02.09-.04.22-.03.32.04.46.38.7.84.81l.28.06,4.18-2.14.1,1.05-2.09.96c-.38.17-.8.33-1.21.5v.04c.42.07.87.14,1.28.22l2.22.45.09,1-4.75-1.16c-1.03-.27-1.68-.68-1.77-1.64-.02-.24,0-.42.04-.58Z"/>
    <path class="st1" d="M136.14,73.2c-.51-.02-.91-.45-.89-.96.02-.51.45-.91.96-.89.51.02.91.45.89.96-.02.53-.46.91-.96.89Z"/>
    <path class="st1" d="M136.18,81.68l-.18.83-.48-.02v.03c.23.43.38.95.28,1.42-.23,1.08-1.23,1.52-2.56,1.23-1.48-.32-2.15-1.38-1.94-2.34.08-.38.33-.72.71-1.01l-.73-.12-1.36-.29.22-1.01,6.04,1.29ZM133.46,84.13c.86.18,1.43.01,1.57-.65.07-.31-.03-.64-.28-1.05l-2.01-.43c-.33.25-.49.54-.54.79-.12.58.29,1.12,1.27,1.33Z"/>
    <path class="st1" d="M131.85,85.88l5.03,1.4-.28,1-5.08-1.41c-.25-.07-.36.02-.39.12-.01.04-.02.08-.03.16l-.78-.08c-.01-.13,0-.31.06-.55.2-.71.73-.84,1.47-.63Z"/>
    <path class="st1" d="M131.32,87.99c.9.3,1.11,1.21.71,2.99.45.14.89.09,1.08-.48.14-.42.09-.87-.01-1.32l.78-.14c.13.56.19,1.24-.04,1.9-.36,1.05-1.17,1.34-2.34.94l-2.48-.84.27-.8.49.08v-.03c-.18-.48-.28-1-.11-1.49.25-.73.92-1.07,1.65-.82ZM130.48,90.44l.94.32c.24-1.18.08-1.66-.35-1.8-.37-.13-.62.07-.74.42-.12.34-.04.66.14,1.06Z"/>
    <path class="st1" d="M127.13,91.2l.67.49c-.06.07-.14.17-.18.27-.18.43,0,.8.35,1.11l.22.19,4.7.11-.41.97-2.29-.15c-.41-.03-.86-.09-1.3-.13v.03c.32.26.68.54,1,.8l1.74,1.46-.39.92-3.63-3.28c-.77-.73-1.16-1.4-.78-2.29.09-.22.2-.37.31-.5Z"/>
    <path class="st1" d="M126.92,103.14c-.44-.26-.59-.83-.33-1.27.26-.44.83-.59,1.27-.33.44.26.59.83.33,1.27-.27.46-.84.58-1.27.33Z"/>
    <path class="st1" d="M124.25,108.88l-.53.66-.42-.23-.02.02c.02.49-.08,1.02-.38,1.4-.69.86-1.78.81-2.84-.04-1.18-.94-1.3-2.2-.69-2.96.25-.31.62-.5,1.09-.59l-.59-.43-1.09-.87.65-.81,4.82,3.85ZM120.72,109.85c.69.55,1.28.65,1.7.12.2-.25.26-.59.21-1.06l-1.61-1.29c-.41.08-.68.26-.84.46-.37.46-.24,1.14.54,1.76Z"/>
    <path class="st1" d="M118.5,110.7l3.88,3.5-.69.77-3.92-3.53c-.19-.17-.33-.15-.41-.07-.03.04-.05.06-.09.13l-.66-.42c.05-.13.13-.28.3-.47.49-.55,1.03-.43,1.6.09Z"/>
    <path class="st1" d="M117.09,112.35c.67.67.46,1.58-.7,2.99.34.33.76.47,1.18.05.31-.31.47-.74.58-1.18l.76.22c-.13.56-.38,1.19-.88,1.69-.79.78-1.65.68-2.52-.2l-1.84-1.86.6-.6.4.29.02-.02c.04-.52.18-1.02.55-1.39.55-.54,1.3-.55,1.84,0ZM115.24,114.18l.7.71c.75-.95.81-1.46.5-1.77-.28-.28-.58-.21-.85.05-.25.25-.33.57-.35,1.02Z"/>
    <path class="st1" d="M111.91,113.35l.38.73c-.08.04-.2.09-.28.16-.35.3-.35.72-.18,1.15l.12.26,4.16,2.19-.8.68-1.99-1.15c-.36-.21-.73-.46-1.11-.7l-.03.02c.18.38.38.79.55,1.17l.91,2.07-.76.65-1.79-4.55c-.37-1-.42-1.77.32-2.39.18-.16.34-.24.5-.31Z"/>
    <path class="st1" d="M106.4,123.97c-.28-.43-.16-1,.27-1.28s1-.16,1.28.27c.28.43.16,1-.27,1.28-.45.29-1.01.14-1.28-.27Z"/>
    <path class="st1" d="M99.48,128.88l-.78.33-.26-.4h-.03c-.22.45-.55.88-1,1.07-1.02.43-1.95-.13-2.48-1.39-.59-1.39-.1-2.55.8-2.94.36-.15.79-.14,1.24,0l-.32-.66-.55-1.28.95-.41,2.42,5.68ZM95.91,128.06c.35.81.82,1.18,1.44.92.29-.13.51-.39.69-.84l-.81-1.9c-.4-.12-.72-.09-.96,0-.54.23-.75.88-.36,1.81Z"/>
    <path class="st1" d="M93.56,127.75l1.75,4.92-.98.35-1.77-4.97c-.09-.24-.22-.29-.33-.25-.04.02-.08.03-.15.07l-.38-.69c.1-.09.25-.18.49-.27.69-.25,1.11.11,1.37.84Z"/>
    <path class="st1" d="M91.53,128.54c.27.91-.35,1.6-2.03,2.3.15.45.44.78,1.02.61.42-.12.76-.43,1.07-.77l.56.56c-.38.43-.9.87-1.58,1.07-1.06.31-1.77-.19-2.12-1.37l-.74-2.51.82-.24.21.45h.03c.29-.44.65-.82,1.15-.97.74-.22,1.4.14,1.62.88ZM89.03,129.26l.28.95c1.11-.48,1.4-.9,1.28-1.32-.11-.38-.41-.46-.77-.36-.35.1-.56.35-.79.73Z"/>
    <path class="st1" d="M86.52,126.94l-.02.82c-.09,0-.22-.01-.32,0-.46.1-.65.46-.71.93l-.02.29,2.61,3.91-1.03.22-1.2-1.96c-.21-.36-.43-.76-.64-1.14h-.04c-.02.43-.04.88-.07,1.3l-.19,2.26-.98.21.6-4.85c.15-1.05.48-1.75,1.42-1.95.24-.05.41-.05.58-.03Z"/>
    <path class="st1" d="M76.6,133.64c-.04-.51.34-.96.85-1,.51-.04.96.34,1,.85.04.51-.34.96-.85,1-.53.04-.96-.36-1-.85Z"/>
    <path class="st1" d="M70.38,134.77l-.85-.05-.05-.48h-.03c-.39.3-.88.53-1.36.5-1.1-.07-1.68-.99-1.6-2.35.09-1.51,1.04-2.33,2.03-2.27.39.02.77.22,1.11.55v-.73s.09-1.39.09-1.39l1.04.06-.37,6.16ZM67.55,132.44c-.05.88.2,1.42.88,1.46.32.02.63-.12.99-.44l.12-2.06c-.3-.29-.61-.4-.86-.42-.59-.04-1.07.46-1.13,1.46Z"/>
    <path class="st1" d="M65.58,131.12l-.62,5.19-1.03-.12.63-5.24c.03-.25-.07-.36-.18-.37-.05,0-.08,0-.16,0l-.04-.78c.13-.04.31-.05.55-.02.73.09.94.59.85,1.36Z"/>
    <path class="st1" d="M63.4,130.92c-.17.93-1.02,1.28-2.85,1.16-.07.47.05.89.64,1,.43.08.88-.05,1.3-.21l.25.75c-.53.22-1.2.38-1.89.25-1.09-.19-1.51-.96-1.29-2.17l.46-2.58.84.15v.5s.02,0,.02,0c.45-.26.94-.44,1.46-.35.76.13,1.2.75,1.06,1.5ZM60.84,130.46l-.17.98c1.21.06,1.66-.18,1.73-.62.07-.38-.16-.6-.53-.66-.35-.06-.65.06-1.03.3Z"/>
    <path class="st1" d="M59.6,127.26l-.38.73c-.08-.04-.19-.11-.29-.14-.45-.12-.79.12-1.04.52l-.15.25.6,4.66-1.02-.26-.2-2.29c-.03-.41-.05-.87-.07-1.31h-.04c-.21.36-.43.75-.64,1.12l-1.17,1.94-.97-.25,2.69-4.08c.6-.87,1.2-1.36,2.14-1.12.23.06.39.14.54.23Z"/>
    <path class="st1" d="M44.39,127.33c.22-.46.77-.66,1.23-.45.46.22.66.77.44,1.23-.22.46-.77.66-1.23.44-.48-.23-.66-.79-.44-1.23Z"/>
    <path class="st1" d="M40.05,126.17l-.72-.44.18-.44h-.02c-.48.06-1.02.04-1.44-.22-.94-.58-1.02-1.66-.3-2.83.79-1.29,2.02-1.56,2.86-1.04.33.21.57.56.71,1.01l.36-.64.73-1.19.88.54-3.23,5.25ZM38.66,122.79c-.46.75-.49,1.35.08,1.7.27.17.61.19,1.08.08l1.08-1.75c-.13-.4-.34-.64-.56-.78-.5-.31-1.16-.1-1.68.75Z"/>
    <path class="st1" d="M37.55,120.69l-3,4.27-.85-.6,3.03-4.32c.15-.21.1-.35.02-.41-.04-.03-.07-.05-.14-.08l.34-.71c.13.03.3.1.5.24.6.42.55.97.11,1.6Z"/>
    <path class="st1" d="M35.72,119.48c-.59.74-1.51.64-3.05-.33-.28.38-.38.81.09,1.18.34.27.79.37,1.25.43l-.13.78c-.57-.06-1.23-.24-1.78-.67-.87-.69-.87-1.56-.11-2.52l1.62-2.05.67.53-.24.43.02.02c.52-.02,1.04.06,1.45.38.61.48.7,1.22.22,1.83ZM33.68,117.86l-.62.78c1.04.62,1.54.63,1.82.28.24-.31.14-.61-.15-.84-.28-.22-.61-.25-1.05-.22Z"/>
    <path class="st1" d="M34.11,114.47l-.68.46c-.05-.08-.12-.19-.19-.26-.34-.31-.76-.26-1.16-.03l-.25.15-1.66,4.39-.78-.71.9-2.11c.17-.38.37-.79.56-1.18l-.03-.02c-.36.23-.74.47-1.09.69l-1.95,1.15-.74-.68,4.3-2.33c.94-.49,1.7-.63,2.41.02.18.16.28.31.36.46Z"/>
    <path class="st1" d="M20.65,107.35c.41-.31.99-.22,1.3.19.31.41.22.99-.19,1.3-.41.31-.99.22-1.3-.19-.32-.43-.21-1,.19-1.3Z"/>
    <path class="st1" d="M17.37,104.3l-.43-.73.37-.31v-.02c-.48-.16-.94-.44-1.19-.86-.56-.95-.11-1.95,1.06-2.64,1.3-.76,2.52-.43,3.01.42.2.34.24.76.16,1.23l.62-.4,1.2-.7.52.9-5.32,3.12ZM17.73,100.65c-.76.45-1.07.96-.73,1.54.16.28.45.46.92.58l1.78-1.04c.07-.41,0-.73-.13-.95-.3-.51-.97-.64-1.84-.13Z"/>
    <path class="st1" d="M17.74,98.29l-4.66,2.36-.47-.92,4.7-2.39c.23-.12.26-.26.21-.36-.02-.04-.04-.07-.09-.14l.63-.47c.1.09.22.23.33.45.33.66.03,1.11-.66,1.46Z"/>
    <path class="st1" d="M16.69,96.35c-.87.38-1.63-.14-2.54-1.73-.43.2-.72.54-.48,1.08.18.4.52.7.9.96l-.48.63c-.47-.32-.98-.79-1.26-1.43-.44-1.01-.04-1.78,1.09-2.27l2.4-1.05.34.78-.42.27v.03c.48.23.9.54,1.11,1.02.31.71.04,1.41-.66,1.71ZM15.65,93.96l-.91.4c.62,1.04,1.06,1.28,1.47,1.1.36-.16.41-.47.26-.81-.14-.33-.42-.51-.82-.69Z"/>
    <path class="st1" d="M17.63,91.19l-.82.09c0-.09-.01-.22-.05-.32-.15-.44-.54-.59-1.01-.58h-.29s-3.54,3.1-3.54,3.1l-.35-.99,1.79-1.44c.33-.26.69-.52,1.05-.78v-.03c-.44.03-.88.07-1.3.1l-2.26.1-.33-.94,4.89-.03c1.06.02,1.8.25,2.12,1.16.08.23.1.4.11.57Z"/>
    <path class="st1" d="M9.13,78.54c.51-.08.98.27,1.05.78s-.27.98-.78,1.05c-.51.08-.98-.27-1.05-.78-.08-.53.29-.98.78-1.05Z"/>
  </g>
  <polygon id="triangle" class="st0" points="109.62 69.73 51.14 35.97 51.14 103.5 109.62 69.73"/>
</svg>